<svg width="1600" height="1100" viewBox="0 0 1600 1100" fill="none" xmlns="http://www.w3.org/2000/svg" role="img" aria-labelledby="title desc">
  <title id="title">Q-Ops Agent application composite</title>
  <desc id="desc">A single enterprise hero image showing Q-Ops Agent features including project evidence ingestion, knowledge base, document generation, Jira and Confluence outputs, analytics, audit trail, and governed operations.</desc>
  <defs>
    <linearGradient id="page" x1="86" y1="69" x2="1488" y2="1030" gradientUnits="userSpaceOnUse">
      <stop stop-color="#F8F7FF"/>
      <stop offset="0.52" stop-color="#EEF2FF"/>
      <stop offset="1" stop-color="#F6FBF8"/>
    </linearGradient>
    <linearGradient id="primary" x1="144" y1="104" x2="1337" y2="984" gradientUnits="userSpaceOnUse">
      <stop stop-color="#3525CD"/>
      <stop offset="1" stop-color="#4F46E5"/>
    </linearGradient>
    <linearGradient id="panel" x1="280" y1="122" x2="1324" y2="908" gradientUnits="userSpaceOnUse">
      <stop stop-color="#FFFFFF"/>
      <stop offset="1" stop-color="#F7F8FC"/>
    </linearGradient>
    <filter id="softShadow" x="-15%" y="-15%" width="130%" height="130%" color-interpolation-filters="sRGB">
      <feDropShadow dx="0" dy="24" stdDeviation="34" flood-color="#172044" flood-opacity="0.18"/>
    </filter>
    <filter id="smallShadow" x="-20%" y="-20%" width="140%" height="140%" color-interpolation-filters="sRGB">
      <feDropShadow dx="0" dy="10" stdDeviation="14" flood-color="#172044" flood-opacity="0.14"/>
    </filter>
    <style>
      .label { font-family: Inter, Segoe UI, Arial, sans-serif; font-size: 28px; font-weight: 800; fill: #1B1B24; }
      .small { font-family: Inter, Segoe UI, Arial, sans-serif; font-size: 21px; font-weight: 650; fill: #5B5A6D; }
      .micro { font-family: Inter, Segoe UI, Arial, sans-serif; font-size: 18px; font-weight: 800; letter-spacing: 2px; fill: #5B5A6D; }
      .whiteLabel { font-family: Inter, Segoe UI, Arial, sans-serif; font-size: 26px; font-weight: 850; fill: #FFFFFF; }
      .whiteSmall { font-family: Inter, Segoe UI, Arial, sans-serif; font-size: 18px; font-weight: 650; fill: #DAD7FF; }
      .metric { font-family: Inter, Segoe UI, Arial, sans-serif; font-size: 44px; font-weight: 900; fill: #1B1B24; }
      .mono { font-family: Consolas, Menlo, monospace; font-size: 19px; font-weight: 700; fill: #4F46E5; }
    </style>
  </defs>

  <rect width="1600" height="1100" rx="48" fill="url(#page)"/>
  <circle cx="156" cy="170" r="118" fill="#3525CD" opacity="0.08"/>
  <circle cx="1428" cy="896" r="152" fill="#10B981" opacity="0.10"/>
  <circle cx="1268" cy="178" r="112" fill="#4F46E5" opacity="0.10"/>

  <g filter="url(#softShadow)">
    <rect x="118" y="86" width="1364" height="928" rx="34" fill="url(#panel)" stroke="#C7C4D8" stroke-width="2"/>
    <rect x="118" y="86" width="1364" height="82" rx="34" fill="#FFFFFF"/>
    <path d="M118 134C118 107.49 139.49 86 166 86H1434C1460.51 86 1482 107.49 1482 134V168H118V134Z" fill="#FFFFFF"/>
    <line x1="118" y1="168" x2="1482" y2="168" stroke="#D9D6E8" stroke-width="2"/>
  </g>

  <rect x="158" y="118" width="46" height="46" rx="13" fill="url(#primary)"/>
  <text x="173" y="150" class="whiteLabel" font-size="27">Q</text>
  <text x="224" y="148" class="label">Q-Ops Workspace</text>
  <rect x="1108" y="118" width="130" height="34" rx="17" fill="#EEF2FF" stroke="#D8D5EA"/>
  <circle cx="1131" cy="135" r="7" fill="#10B981"/>
  <text x="1150" y="143" class="small" font-size="18">Live</text>
  <rect x="1258" y="118" width="174" height="34" rx="17" fill="#F6F5FF" stroke="#D8D5EA"/>
  <text x="1280" y="143" class="small" font-size="18">Admin View</text>

  <g filter="url(#smallShadow)">
    <rect x="158" y="210" width="254" height="736" rx="24" fill="#11182B"/>
  </g>
  <rect x="188" y="246" width="152" height="28" rx="14" fill="#ADC6FF" opacity="0.18"/>
  <text x="188" y="317" class="whiteSmall">QA INTELLIGENCE</text>
  <rect x="188" y="346" width="184" height="48" rx="12" fill="#3525CD"/>
  <text x="216" y="377" class="whiteSmall">Dashboard</text>
  <rect x="188" y="412" width="184" height="48" rx="12" fill="#1D2740"/>
  <text x="216" y="443" class="whiteSmall">Knowledge Base</text>
  <rect x="188" y="478" width="184" height="48" rx="12" fill="#1D2740"/>
  <text x="216" y="509" class="whiteSmall">Generate Docs</text>
  <rect x="188" y="544" width="184" height="48" rx="12" fill="#1D2740"/>
  <text x="216" y="575" class="whiteSmall">Analytics</text>
  <text x="188" y="662" class="whiteSmall">DELIVERY INTEL</text>
  <rect x="188" y="692" width="184" height="48" rx="12" fill="#1D2740"/>
  <text x="216" y="723" class="whiteSmall">Governance</text>
  <rect x="188" y="758" width="184" height="48" rx="12" fill="#1D2740"/>
  <text x="216" y="789" class="whiteSmall">Recommendations</text>

  <g filter="url(#smallShadow)">
    <rect x="452" y="210" width="566" height="336" rx="24" fill="#FFFFFF" stroke="#D7D4E8" stroke-width="2"/>
  </g>
  <text x="486" y="262" class="micro">PROJECT EVIDENCE TO QA OUTPUTS</text>
  <text x="486" y="314" class="label">AstraCart Quick Commerce</text>
  <text x="486" y="350" class="small">BRD, FRD, HLD, LLD, transcripts and UI files become governed QA intelligence.</text>
  <rect x="486" y="394" width="142" height="82" rx="16" fill="#F3F2FF" stroke="#DAD7FF"/>
  <text x="516" y="428" class="metric" font-size="34">24</text>
  <text x="516" y="458" class="small" font-size="19">Artifacts</text>
  <rect x="652" y="394" width="142" height="82" rx="16" fill="#EFFAF5" stroke="#BDEDD7"/>
  <text x="682" y="428" class="metric" font-size="34">98%</text>
  <text x="682" y="458" class="small" font-size="19">Coverage</text>
  <rect x="818" y="394" width="154" height="82" rx="16" fill="#FFF8E8" stroke="#FFE1A9"/>
  <text x="848" y="428" class="metric" font-size="34">12</text>
  <text x="848" y="458" class="small" font-size="19">Jobs Today</text>
  <path d="M507 508H946" stroke="#D8D5EA" stroke-width="2"/>
  <circle cx="540" cy="508" r="12" fill="#3525CD"/>
  <circle cx="690" cy="508" r="12" fill="#10B981"/>
  <circle cx="840" cy="508" r="12" fill="#F59E0B"/>

  <g filter="url(#smallShadow)">
    <rect x="1052" y="210" width="380" height="336" rx="24" fill="#11182B"/>
  </g>
  <text x="1088" y="262" class="whiteSmall">GENERATION FLOW</text>
  <rect x="1088" y="296" width="304" height="44" rx="12" fill="#1D2740"/>
  <text x="1110" y="325" class="whiteSmall">Test Strategy</text>
  <rect x="1088" y="354" width="304" height="44" rx="12" fill="#1D2740"/>
  <text x="1110" y="383" class="whiteSmall">Risk Matrix</text>
  <rect x="1088" y="412" width="304" height="44" rx="12" fill="#3525CD"/>
  <text x="1110" y="441" class="whiteLabel" font-size="21">Epics &amp; User Stories</text>
  <rect x="1088" y="476" width="176" height="34" rx="17" fill="#10B981"/>
  <text x="1110" y="499" class="whiteSmall" font-size="17">Completed</text>

  <g filter="url(#smallShadow)">
    <rect x="452" y="588" width="310" height="166" rx="22" fill="#FFFFFF" stroke="#D7D4E8" stroke-width="2"/>
  </g>
  <text x="486" y="638" class="micro">KNOWLEDGE BASE</text>
  <rect x="486" y="662" width="232" height="16" rx="8" fill="#3525CD"/>
  <rect x="486" y="694" width="192" height="16" rx="8" fill="#10B981"/>
  <rect x="486" y="726" width="140" height="16" rx="8" fill="#F59E0B"/>

  <g filter="url(#smallShadow)">
    <rect x="792" y="588" width="300" height="166" rx="22" fill="#FFFFFF" stroke="#D7D4E8" stroke-width="2"/>
  </g>
  <text x="826" y="638" class="micro">JIRA + CONFLUENCE</text>
  <text x="826" y="682" class="mono">PRO-260603-SMK27Q</text>
  <rect x="826" y="708" width="92" height="28" rx="14" fill="#EFFAF5" stroke="#BDEDD7"/>
  <text x="845" y="729" class="small" font-size="16">Jira</text>
  <rect x="932" y="708" width="126" height="28" rx="14" fill="#F3F2FF" stroke="#DAD7FF"/>
  <text x="951" y="729" class="small" font-size="16">Confluence</text>

  <g filter="url(#smallShadow)">
    <rect x="1122" y="588" width="310" height="166" rx="22" fill="#FFFFFF" stroke="#D7D4E8" stroke-width="2"/>
  </g>
  <text x="1156" y="638" class="micro">AUDIT + NOTIFY</text>
  <rect x="1156" y="666" width="220" height="14" rx="7" fill="#DAD7FF"/>
  <rect x="1156" y="696" width="176" height="14" rx="7" fill="#BDEDD7"/>
  <rect x="1156" y="726" width="238" height="14" rx="7" fill="#FFE1A9"/>

  <g filter="url(#smallShadow)">
    <rect x="452" y="794" width="980" height="152" rx="24" fill="#FFFFFF" stroke="#D7D4E8" stroke-width="2"/>
  </g>
  <text x="486" y="846" class="micro">ANALYTICS AND OPERATIONAL HEALTH</text>
  <path d="M500 907C552 860 591 884 638 848C683 813 728 846 768 832C821 813 858 759 918 795C973 829 1000 893 1062 854C1124 815 1160 790 1230 817C1286 839 1326 808 1384 764" stroke="#3525CD" stroke-width="10" stroke-linecap="round"/>
  <path d="M500 907C552 860 591 884 638 848C683 813 728 846 768 832C821 813 858 759 918 795C973 829 1000 893 1062 854C1124 815 1160 790 1230 817C1286 839 1326 808 1384 764" stroke="#10B981" stroke-width="4" stroke-linecap="round" opacity="0.85"/>
  <circle cx="918" cy="795" r="13" fill="#FFFFFF" stroke="#3525CD" stroke-width="5"/>
  <circle cx="1230" cy="817" r="13" fill="#FFFFFF" stroke="#10B981" stroke-width="5"/>

  <path d="M640 559C682 586 734 590 785 566" stroke="#3525CD" stroke-width="4" stroke-linecap="round" stroke-dasharray="10 14"/>
  <path d="M942 559C1000 588 1064 588 1125 559" stroke="#10B981" stroke-width="4" stroke-linecap="round" stroke-dasharray="10 14"/>
  <path d="M1042 378C1016 394 1010 420 1029 444" stroke="#F59E0B" stroke-width="4" stroke-linecap="round" stroke-dasharray="10 14"/>
</svg>
